<svg width="512" height="512" viewBox="0 0 512 512" fill="none" xmlns="http://www.w3.org/2000/svg">
  <defs>
    <linearGradient id="gradientC" x1="0%" y1="0%" x2="100%" y2="100%">
      <stop offset="0%" stop-color="#3B82F6" />
      <stop offset="50%" stop-color="#A855F7" />
      <stop offset="100%" stop-color="#EC4899" />
    </linearGradient>
    <filter id="glow" x="-20%" y="-20%" width="140%" height="140%">
      <feGaussianBlur stdDeviation="15" result="blur" />
      <feComposite in="SourceGraphic" in2="blur" operator="over" />
    </filter>
  </defs>
  <!-- Background Shape -->
  <rect width="512" height="512" rx="128" fill="#020617" />
  <!-- Stylized 'C' -->
  <path 
    d="M380 150C350 110 300 90 250 90C160 90 90 160 90 256C90 352 160 422 250 422C300 422 350 402 380 362" 
    stroke="url(#gradientC)" 
    stroke-width="50" 
    stroke-linecap="round" 
    filter="url(#glow)"
  />
  <!-- Inner Glow/Accent -->
  <path 
    d="M340 180C320 155 290 140 256 140C192 140 140 192 140 256C140 320 192 372 256 372C290 372 320 357 340 332" 
    stroke="white" 
    stroke-width="10" 
    stroke-linecap="round" 
    stroke-opacity="0.3"
  />
</svg>
